<?xml version="1.0" encoding="UTF-8"?>
<svg xmlns="http://www.w3.org/2000/svg" xmlns:xlink="http://www.w3.org/1999/xlink" width="188.711" height="90.872" viewBox="0 0 188.711 90.872">
<defs>
<g>
<g id="glyph-0-0">
<path d="M 1.78125 -1.140625 C 1.390625 -0.484375 1 -0.34375 0.5625 -0.3125 C 0.4375 -0.296875 0.34375 -0.296875 0.34375 -0.109375 C 0.34375 -0.046875 0.390625 0 0.484375 0 C 0.75 0 1.0625 -0.03125 1.328125 -0.03125 C 1.65625 -0.03125 2.015625 0 2.328125 0 C 2.390625 0 2.515625 0 2.515625 -0.1875 C 2.515625 -0.296875 2.421875 -0.3125 2.359375 -0.3125 C 2.125 -0.328125 1.890625 -0.40625 1.890625 -0.65625 C 1.890625 -0.78125 1.953125 -0.890625 2.03125 -1.03125 L 2.78125 -2.296875 L 5.28125 -2.296875 C 5.3125 -2.09375 5.4375 -0.734375 5.4375 -0.640625 C 5.4375 -0.34375 4.921875 -0.3125 4.734375 -0.3125 C 4.59375 -0.3125 4.484375 -0.3125 4.484375 -0.109375 C 4.484375 0 4.609375 0 4.625 0 C 5.03125 0 5.46875 -0.03125 5.875 -0.03125 C 6.125 -0.03125 6.75 0 7 0 C 7.0625 0 7.171875 0 7.171875 -0.203125 C 7.171875 -0.3125 7.078125 -0.3125 6.953125 -0.3125 C 6.328125 -0.3125 6.328125 -0.375 6.296875 -0.671875 L 5.6875 -6.890625 C 5.671875 -7.09375 5.671875 -7.125 5.5 -7.125 C 5.34375 -7.125 5.3125 -7.0625 5.25 -6.953125 Z M 2.96875 -2.609375 L 4.9375 -5.890625 L 5.25 -2.609375 Z M 2.96875 -2.609375 "/>
</g>
<g id="glyph-0-1">
<path d="M 1.59375 -0.78125 C 1.5 -0.390625 1.46875 -0.3125 0.6875 -0.3125 C 0.515625 -0.3125 0.421875 -0.3125 0.421875 -0.109375 C 0.421875 0 0.5 0 0.6875 0 L 4.234375 0 C 5.8125 0 6.984375 -1.171875 6.984375 -2.15625 C 6.984375 -2.859375 6.40625 -3.4375 5.4375 -3.546875 C 6.484375 -3.75 7.53125 -4.484375 7.53125 -5.421875 C 7.53125 -6.15625 6.875 -6.796875 5.671875 -6.796875 L 2.328125 -6.796875 C 2.140625 -6.796875 2.046875 -6.796875 2.046875 -6.59375 C 2.046875 -6.484375 2.125 -6.484375 2.3125 -6.484375 C 2.34375 -6.484375 2.53125 -6.484375 2.703125 -6.46875 C 2.875 -6.453125 2.96875 -6.4375 2.96875 -6.3125 C 2.96875 -6.265625 2.953125 -6.234375 2.921875 -6.125 Z M 3.09375 -3.640625 L 3.71875 -6.109375 C 3.796875 -6.453125 3.828125 -6.484375 4.25 -6.484375 L 5.53125 -6.484375 C 6.40625 -6.484375 6.625 -5.90625 6.625 -5.46875 C 6.625 -4.59375 5.765625 -3.640625 4.546875 -3.640625 Z M 2.640625 -0.3125 C 2.515625 -0.3125 2.484375 -0.3125 2.421875 -0.3125 C 2.328125 -0.328125 2.296875 -0.34375 2.296875 -0.421875 C 2.296875 -0.453125 2.296875 -0.46875 2.34375 -0.640625 L 3.03125 -3.421875 L 4.921875 -3.421875 C 5.875 -3.421875 6.0625 -2.6875 6.0625 -2.265625 C 6.0625 -1.28125 5.171875 -0.3125 4 -0.3125 Z M 2.640625 -0.3125 "/>
</g>
<g id="glyph-1-0">
<path d="M 3.21875 -1.578125 L 5.359375 -1.578125 C 5.453125 -1.578125 5.609375 -1.578125 5.609375 -1.734375 C 5.609375 -1.921875 5.453125 -1.921875 5.359375 -1.921875 L 3.21875 -1.921875 L 3.21875 -4.0625 C 3.21875 -4.140625 3.21875 -4.3125 3.0625 -4.3125 C 2.890625 -4.3125 2.890625 -4.15625 2.890625 -4.0625 L 2.890625 -1.921875 L 0.75 -1.921875 C 0.65625 -1.921875 0.484375 -1.921875 0.484375 -1.75 C 0.484375 -1.578125 0.640625 -1.578125 0.75 -1.578125 L 2.890625 -1.578125 L 2.890625 0.5625 C 2.890625 0.65625 2.890625 0.828125 3.046875 0.828125 C 3.21875 0.828125 3.21875 0.65625 3.21875 0.5625 Z M 3.21875 -1.578125 "/>
</g>
<g id="glyph-2-0">
<path d="M 4.359375 -2.921875 C 4.40625 -3.15625 4.515625 -3.5625 4.515625 -3.59375 C 4.515625 -3.71875 4.4375 -3.859375 4.25 -3.859375 C 4.125 -3.859375 3.984375 -3.78125 3.921875 -3.671875 C 3.875 -3.578125 3.265625 -1.15625 3.21875 -0.859375 C 3.03125 -0.53125 2.671875 -0.125 2.171875 -0.125 C 1.625 -0.125 1.625 -0.6875 1.625 -0.859375 C 1.625 -1.265625 1.734375 -1.703125 2.125 -2.703125 C 2.1875 -2.90625 2.25 -3.03125 2.25 -3.203125 C 2.25 -3.640625 1.921875 -3.953125 1.484375 -3.953125 C 0.625 -3.953125 0.265625 -2.6875 0.265625 -2.578125 C 0.265625 -2.5 0.328125 -2.46875 0.390625 -2.46875 C 0.484375 -2.46875 0.5 -2.53125 0.53125 -2.640625 C 0.71875 -3.28125 1.0625 -3.734375 1.453125 -3.734375 C 1.640625 -3.734375 1.671875 -3.59375 1.671875 -3.4375 C 1.671875 -3.28125 1.625 -3.125 1.546875 -2.90625 C 1.125 -1.796875 1.015625 -1.421875 1.015625 -1 C 1.015625 0 1.8125 0.09375 2.15625 0.09375 C 2.65625 0.09375 3.03125 -0.21875 3.234375 -0.5 C 3.40625 0.09375 4 0.09375 4.0625 0.09375 C 4.3125 0.09375 4.546875 -0.03125 4.734375 -0.375 C 4.890625 -0.671875 5.015625 -1.25 5.015625 -1.28125 C 5.015625 -1.328125 5 -1.390625 4.90625 -1.390625 C 4.796875 -1.390625 4.796875 -1.34375 4.75 -1.171875 C 4.578125 -0.46875 4.390625 -0.125 4.078125 -0.125 C 3.875 -0.125 3.8125 -0.3125 3.8125 -0.53125 C 3.8125 -0.703125 3.84375 -0.890625 3.9375 -1.203125 L 4.15625 -2.125 Z M 4.359375 -2.921875 "/>
</g>
<g id="glyph-2-1">
<path d="M 4.5 -3.453125 C 4.5 -3.484375 4.515625 -3.546875 4.515625 -3.59375 C 4.515625 -3.71875 4.4375 -3.859375 4.25 -3.859375 C 4.125 -3.859375 3.96875 -3.78125 3.890625 -3.609375 C 3.890625 -3.578125 3.796875 -3.21875 3.75 -3.015625 L 3.296875 -1.234375 C 3.21875 -0.96875 3.21875 -0.953125 3.203125 -0.875 C 3.203125 -0.828125 2.8125 -0.125 2.171875 -0.125 C 1.625 -0.125 1.625 -0.6875 1.625 -0.859375 C 1.625 -1.265625 1.734375 -1.703125 2.125 -2.703125 C 2.1875 -2.90625 2.25 -3.03125 2.25 -3.203125 C 2.25 -3.640625 1.921875 -3.953125 1.484375 -3.953125 C 0.625 -3.953125 0.265625 -2.6875 0.265625 -2.578125 C 0.265625 -2.5 0.328125 -2.46875 0.390625 -2.46875 C 0.484375 -2.46875 0.5 -2.53125 0.53125 -2.640625 C 0.71875 -3.296875 1.078125 -3.734375 1.453125 -3.734375 C 1.671875 -3.734375 1.671875 -3.5625 1.671875 -3.4375 C 1.671875 -3.28125 1.625 -3.125 1.546875 -2.90625 C 1.125 -1.796875 1.015625 -1.421875 1.015625 -1 C 1.015625 0 1.8125 0.09375 2.15625 0.09375 C 2.59375 0.09375 2.90625 -0.140625 3.0625 -0.296875 C 2.953125 0.15625 2.84375 0.5625 2.5 1.015625 C 2.234375 1.375 1.875 1.609375 1.484375 1.609375 C 1.234375 1.609375 0.9375 1.515625 0.8125 1.265625 C 1.28125 1.265625 1.34375 0.875 1.34375 0.78125 C 1.34375 0.59375 1.203125 0.46875 1 0.46875 C 0.78125 0.46875 0.5 0.640625 0.5 1.046875 C 0.5 1.515625 0.90625 1.828125 1.484375 1.828125 C 2.390625 1.828125 3.359375 1.0625 3.625 0.015625 Z M 4.5 -3.453125 "/>
</g>
</g>
<clipPath id="clip-0">
<path clip-rule="nonzero" d="M 169 34 L 188.421875 34 L 188.421875 57 L 169 57 Z M 169 34 "/>
</clipPath>
</defs>
<path fill="none" stroke-width="0.69739" stroke-linecap="butt" stroke-linejoin="miter" stroke="rgb(0%, 27.450562%, 54.902649%)" stroke-opacity="1" stroke-miterlimit="10" d="M -15.592424 15.591251 L 15.591979 15.591251 L 15.591979 41.102917 L -15.592424 41.102917 Z M -15.592424 15.591251 " transform="matrix(0.998471, 0, 0, -0.998471, 73.713113, 45.372098)"/>
<g fill="rgb(0%, 27.450562%, 54.902649%)" fill-opacity="1">
<use xlink:href="#glyph-0-0" x="69.982825" y="20.467238"/>
</g>
<path fill="none" stroke-width="0.69739" stroke-linecap="butt" stroke-linejoin="miter" stroke="rgb(0%, 27.450562%, 54.902649%)" stroke-opacity="1" stroke-miterlimit="10" d="M -15.592424 -41.100906 L 15.591979 -41.100906 L 15.591979 -15.58924 L -15.592424 -15.58924 Z M -15.592424 -41.100906 " transform="matrix(0.998471, 0, 0, -0.998471, 73.713113, 45.372098)"/>
<g fill="rgb(0%, 27.450562%, 54.902649%)" fill-opacity="1">
<use xlink:href="#glyph-0-1" x="69.691272" y="77.073549"/>
</g>
<path fill="none" stroke-width="0.69739" stroke-linecap="butt" stroke-linejoin="miter" stroke="rgb(0%, 27.450562%, 54.902649%)" stroke-opacity="1" stroke-miterlimit="10" d="M 73.700364 0.00100565 C 73.700364 4.695684 69.893762 8.502286 65.199083 8.502286 C 60.500492 8.502286 56.693891 4.695684 56.693891 0.00100565 C 56.693891 -4.697585 60.500492 -8.504187 65.199083 -8.504187 C 69.893762 -8.504187 73.700364 -4.697585 73.700364 0.00100565 Z M 73.700364 0.00100565 " transform="matrix(0.998471, 0, 0, -0.998471, 73.713113, 45.372098)"/>
<path fill="none" stroke-width="0.69739" stroke-linecap="butt" stroke-linejoin="miter" stroke="rgb(0%, 27.450562%, 54.902649%)" stroke-opacity="1" stroke-miterlimit="10" d="M -68.031984 0.00100565 L -45.356686 0.00100565 " transform="matrix(0.998471, 0, 0, -0.998471, 73.713113, 45.372098)"/>
<path fill="none" stroke-width="0.69739" stroke-linecap="butt" stroke-linejoin="miter" stroke="rgb(0%, 27.450562%, 54.902649%)" stroke-opacity="1" stroke-miterlimit="10" d="M -45.356686 0.00100565 L -45.356686 28.345128 L -15.940612 28.345128 " transform="matrix(0.998471, 0, 0, -0.998471, 73.713113, 45.372098)"/>
<path fill="none" stroke-width="0.69739" stroke-linecap="butt" stroke-linejoin="miter" stroke="rgb(0%, 27.450562%, 54.902649%)" stroke-opacity="1" stroke-miterlimit="10" d="M -22.677476 28.345128 L -19.672882 28.345128 " transform="matrix(0.998471, 0, 0, -0.998471, 73.713113, 45.372098)"/>
<path fill-rule="nonzero" fill="rgb(0%, 27.450562%, 54.902649%)" fill-opacity="1" stroke-width="0.69739" stroke-linecap="butt" stroke-linejoin="miter" stroke="rgb(0%, 27.450562%, 54.902649%)" stroke-opacity="1" stroke-miterlimit="10" d="M 4.97359 -0.00167209 L 1.116129 1.481064 L 2.391516 -0.00167209 L 1.116129 -1.480496 Z M 4.97359 -0.00167209 " transform="matrix(0.998471, 0, 0, -0.998471, 51.854328, 17.068643)"/>
<path fill="none" stroke-width="0.69739" stroke-linecap="butt" stroke-linejoin="miter" stroke="rgb(0%, 27.450562%, 54.902649%)" stroke-opacity="1" stroke-miterlimit="10" d="M -45.356686 0.00100565 L -45.356686 -28.347029 L -15.940612 -28.347029 " transform="matrix(0.998471, 0, 0, -0.998471, 73.713113, 45.372098)"/>
<path fill="none" stroke-width="0.69739" stroke-linecap="butt" stroke-linejoin="miter" stroke="rgb(0%, 27.450562%, 54.902649%)" stroke-opacity="1" stroke-miterlimit="10" d="M -22.677476 -28.347029 L -19.672882 -28.347029 " transform="matrix(0.998471, 0, 0, -0.998471, 73.713113, 45.372098)"/>
<path fill-rule="nonzero" fill="rgb(0%, 27.450562%, 54.902649%)" fill-opacity="1" stroke-width="0.69739" stroke-linecap="butt" stroke-linejoin="miter" stroke="rgb(0%, 27.450562%, 54.902649%)" stroke-opacity="1" stroke-miterlimit="10" d="M 4.97359 -0.000228844 L 1.116129 1.482507 L 2.391516 -0.000228844 L 1.116129 -1.482965 Z M 4.97359 -0.000228844 " transform="matrix(0.998471, 0, 0, -0.998471, 51.854328, 73.675553)"/>
<path fill="none" stroke-width="0.69739" stroke-linecap="butt" stroke-linejoin="miter" stroke="rgb(0%, 27.450562%, 54.902649%)" stroke-opacity="1" stroke-miterlimit="10" d="M 15.940168 28.345128 L 65.199083 28.345128 " transform="matrix(0.998471, 0, 0, -0.998471, 73.713113, 45.372098)"/>
<path fill="none" stroke-width="0.69739" stroke-linecap="butt" stroke-linejoin="miter" stroke="rgb(0%, 27.450562%, 54.902649%)" stroke-opacity="1" stroke-miterlimit="10" d="M 65.199083 28.345128 L 65.199083 12.586657 " transform="matrix(0.998471, 0, 0, -0.998471, 73.713113, 45.372098)"/>
<path fill-rule="nonzero" fill="rgb(0%, 27.450562%, 54.902649%)" fill-opacity="1" stroke-width="0.69739" stroke-linecap="butt" stroke-linejoin="miter" stroke="rgb(0%, 27.450562%, 54.902649%)" stroke-opacity="1" stroke-miterlimit="10" d="M 4.973095 0.00134333 L 1.115634 1.480167 L 2.391022 0.00134333 L 1.115634 -1.481393 Z M 4.973095 0.00134333 " transform="matrix(0, 0.998471, 0.998471, 0, 138.811159, 30.589197)"/>
<path fill="none" stroke-width="0.69739" stroke-linecap="butt" stroke-linejoin="miter" stroke="rgb(0%, 27.450562%, 54.902649%)" stroke-opacity="1" stroke-miterlimit="10" d="M 15.940168 -28.347029 L 65.199083 -28.347029 " transform="matrix(0.998471, 0, 0, -0.998471, 73.713113, 45.372098)"/>
<path fill="none" stroke-width="0.69739" stroke-linecap="butt" stroke-linejoin="miter" stroke="rgb(0%, 27.450562%, 54.902649%)" stroke-opacity="1" stroke-miterlimit="10" d="M 65.199083 -28.347029 L 65.199083 -12.588558 " transform="matrix(0.998471, 0, 0, -0.998471, 73.713113, 45.372098)"/>
<path fill-rule="nonzero" fill="rgb(0%, 27.450562%, 54.902649%)" fill-opacity="1" stroke-width="0.69739" stroke-linecap="butt" stroke-linejoin="miter" stroke="rgb(0%, 27.450562%, 54.902649%)" stroke-opacity="1" stroke-miterlimit="10" d="M 4.975106 -0.00134333 L 1.113733 1.481393 L 2.393033 -0.00134333 L 1.113733 -1.480167 Z M 4.975106 -0.00134333 " transform="matrix(0, -0.998471, -0.998471, 0, 138.811159, 60.154999)"/>
<g fill="rgb(0%, 27.450562%, 54.902649%)" fill-opacity="1">
<use xlink:href="#glyph-1-0" x="128.680933" y="33.527238"/>
</g>
<g fill="rgb(0%, 27.450562%, 54.902649%)" fill-opacity="1">
<use xlink:href="#glyph-1-0" x="128.680933" y="60.698626"/>
</g>
<path fill="none" stroke-width="0.69739" stroke-linecap="butt" stroke-linejoin="miter" stroke="rgb(0%, 27.450562%, 54.902649%)" stroke-opacity="1" stroke-miterlimit="10" d="M 74.048553 0.00100565 L 106.817409 0.00100565 " transform="matrix(0.998471, 0, 0, -0.998471, 73.713113, 45.372098)"/>
<path fill-rule="nonzero" fill="rgb(0%, 27.450562%, 54.902649%)" fill-opacity="1" d="M 183.117188 45.371094 L 179.265625 43.894531 L 180.542969 45.371094 L 179.265625 46.851562 Z M 183.117188 45.371094 "/>
<g clip-path="url(#clip-0)">
<path fill="none" stroke-width="0.69739" stroke-linecap="butt" stroke-linejoin="miter" stroke="rgb(0%, 27.450562%, 54.902649%)" stroke-opacity="1" stroke-miterlimit="10" d="M 4.972091 0.00100565 L 1.11463 1.479829 L 2.39393 0.00100565 L 1.11463 -1.48173 Z M 4.972091 0.00100565 " transform="matrix(0.998471, 0, 0, -0.998471, 178.152699, 45.372098)"/>
</g>
<g fill="rgb(0%, 27.450562%, 54.902649%)" fill-opacity="1">
<use xlink:href="#glyph-2-0" x="5.968859" y="38.80815"/>
</g>
<g fill="rgb(0%, 27.450562%, 54.902649%)" fill-opacity="1">
<use xlink:href="#glyph-2-1" x="167.517457" y="37.937484"/>
</g>
</svg>
